<svg width="40" height="40" viewBox="0 0 40 40" fill="none" xmlns="http://www.w3.org/2000/svg">
<circle cx="20" cy="20" r="20" fill="#1592E6"/>
<path d="M30.1858 18.5443C30.5873 18.5443 30.9301 18.6863 31.2142 18.9704C31.4983 19.2545 31.6403 19.5973 31.6403 19.9988C31.6403 20.4004 31.4983 20.7432 31.2142 21.0273C30.9301 21.3113 30.5873 21.4534 30.1858 21.4534H30.0153L28.7085 28.9761C28.6479 29.3246 28.4812 29.6125 28.2085 29.8398C27.9358 30.067 27.6252 30.1807 27.2767 30.1807H12.7312C12.3828 30.1807 12.0721 30.067 11.7994 29.8398C11.5267 29.6125 11.36 29.3246 11.2994 28.9761L9.9926 21.4534H9.82214C9.42063 21.4534 9.07783 21.3113 8.79374 21.0273C8.50964 20.7432 8.3676 20.4004 8.3676 19.9988C8.3676 19.5973 8.50964 19.2545 8.79374 18.9704C9.07783 18.6863 9.42063 18.5443 9.82214 18.5443H30.1858ZM13.879 27.6352C14.0759 27.6201 14.2407 27.5348 14.3733 27.3795C14.5059 27.2242 14.5646 27.0481 14.5494 26.8511L14.1858 22.1238C14.1706 21.9269 14.0854 21.7621 13.9301 21.6295C13.7748 21.497 13.5987 21.4382 13.4017 21.4534C13.2047 21.4685 13.0399 21.5538 12.9074 21.7091C12.7748 21.8644 12.7161 22.0405 12.7312 22.2375L13.0949 26.9648C13.11 27.1541 13.1877 27.3132 13.3278 27.442C13.468 27.5708 13.6328 27.6352 13.8221 27.6352H13.879ZM18.5494 26.9079V22.1807C18.5494 21.9837 18.4774 21.8132 18.3335 21.6693C18.1896 21.5254 18.0191 21.4534 17.8221 21.4534C17.6252 21.4534 17.4547 21.5254 17.3108 21.6693C17.1668 21.8132 17.0949 21.9837 17.0949 22.1807V26.9079C17.0949 27.1049 17.1668 27.2754 17.3108 27.4193C17.4547 27.5632 17.6252 27.6352 17.8221 27.6352C18.0191 27.6352 18.1896 27.5632 18.3335 27.4193C18.4774 27.2754 18.5494 27.1049 18.5494 26.9079ZM22.9131 26.9079V22.1807C22.9131 21.9837 22.8411 21.8132 22.6971 21.6693C22.5532 21.5254 22.3828 21.4534 22.1858 21.4534C21.9888 21.4534 21.8184 21.5254 21.6744 21.6693C21.5305 21.8132 21.4585 21.9837 21.4585 22.1807V26.9079C21.4585 27.1049 21.5305 27.2754 21.6744 27.4193C21.8184 27.5632 21.9888 27.6352 22.1858 27.6352C22.3828 27.6352 22.5532 27.5632 22.6971 27.4193C22.8411 27.2754 22.9131 27.1049 22.9131 26.9079ZM26.9131 26.9648L27.2767 22.2375C27.2918 22.0405 27.2331 21.8644 27.1006 21.7091C26.968 21.5538 26.8032 21.4685 26.6062 21.4534C26.4093 21.4382 26.2331 21.497 26.0778 21.6295C25.9225 21.7621 25.8373 21.9269 25.8221 22.1238L25.4585 26.8511C25.4434 27.0481 25.5021 27.2242 25.6346 27.3795C25.7672 27.5348 25.932 27.6201 26.129 27.6352H26.1858C26.3752 27.6352 26.5399 27.5708 26.6801 27.442C26.8203 27.3132 26.8979 27.1541 26.9131 26.9648ZM13.7767 13.1352L12.7199 17.817H11.2199L12.3676 12.8057C12.5115 12.139 12.8487 11.5954 13.379 11.175C13.9093 10.7545 14.5153 10.5443 15.1971 10.5443H17.0949C17.0949 10.3473 17.1668 10.1769 17.3108 10.0329C17.4547 9.88899 17.6252 9.81702 17.8221 9.81702H22.1858C22.3828 9.81702 22.5532 9.88899 22.6971 10.0329C22.8411 10.1769 22.9131 10.3473 22.9131 10.5443H24.8108C25.4926 10.5443 26.0987 10.7545 26.629 11.175C27.1593 11.5954 27.4964 12.139 27.6403 12.8057L28.7881 17.817H27.2881L26.2312 13.1352C26.1479 12.8019 25.9756 12.5291 25.7142 12.317C25.4528 12.1049 25.1517 11.9988 24.8108 11.9988H22.9131C22.9131 12.1958 22.8411 12.3663 22.6971 12.5102C22.5532 12.6541 22.3828 12.7261 22.1858 12.7261H17.8221C17.6252 12.7261 17.4547 12.6541 17.3108 12.5102C17.1668 12.3663 17.0949 12.1958 17.0949 11.9988H15.1971C14.8562 11.9988 14.5551 12.1049 14.2937 12.317C14.0324 12.5291 13.86 12.8019 13.7767 13.1352Z" fill="white"/>
</svg>
