<svg width="30" height="30" viewBox="0 0 30 30" fill="none" xmlns="http://www.w3.org/2000/svg">
<path d="M11.454 0.0900002C11.002 0.251999 10.5969 0.612 9.94521 1.416C9.0998 2.466 9.12329 2.454 7.64384 2.52C6.48141 2.568 6.32877 2.598 5.91781 2.814C5.31311 3.126 5.00783 3.672 4.6908 4.98C4.46184 5.946 4.33855 6.234 4.06849 6.438C3.96282 6.522 3.49902 6.78 3.0411 7.014C2.07241 7.518 1.70254 7.83 1.46184 8.364C1.22114 8.904 1.21526 9.33 1.43249 10.404C1.53229 10.896 1.61448 11.454 1.61448 11.64C1.61448 12.03 1.53229 12.18 0.83953 13.092C0.592955 13.41 0.305284 13.86 0.193738 14.082C0.0176125 14.448 0 14.538 0 15C0 15.462 0.0176125 15.552 0.193738 15.918C0.305284 16.14 0.592955 16.59 0.83953 16.908C1.53229 17.82 1.61448 17.97 1.61448 18.36C1.61448 18.546 1.53229 19.104 1.43249 19.596C1.21526 20.67 1.22114 21.096 1.46184 21.636C1.70254 22.17 2.07241 22.482 3.0411 22.986C3.49902 23.22 3.96282 23.478 4.06849 23.562C4.33855 23.772 4.46184 24.054 4.69667 25.032C5.00196 26.316 5.32485 26.88 5.91781 27.186C6.32877 27.402 6.48141 27.432 7.64384 27.48C9.12329 27.546 9.09393 27.528 9.95108 28.59C10.8493 29.706 11.2955 30 12.0939 30C12.5695 30 12.7691 29.934 13.7671 29.466C14.5362 29.106 14.6536 29.07 15 29.07C15.3464 29.07 15.4638 29.106 16.2329 29.466C17.2309 29.934 17.4305 30 17.9061 30C18.7045 30 19.1507 29.706 20.0489 28.59C20.9061 27.528 20.8767 27.546 22.3562 27.48C23.7886 27.42 24.0763 27.33 24.5636 26.79C24.9041 26.412 25.0685 26.022 25.3092 25.014C25.5382 24.054 25.6614 23.766 25.9315 23.562C26.0372 23.478 26.501 23.22 26.9589 22.986C27.9276 22.482 28.2975 22.17 28.5382 21.636C28.7789 21.096 28.7847 20.67 28.5675 19.596C28.4677 19.104 28.3855 18.546 28.3855 18.36C28.3855 17.97 28.4677 17.82 29.1663 16.908C29.4129 16.584 29.7006 16.14 29.8063 15.918C29.9765 15.552 30 15.456 30 15C30 14.544 29.9765 14.448 29.8063 14.082C29.7006 13.86 29.4129 13.416 29.1663 13.092C28.4618 12.174 28.3855 12.036 28.3855 11.628C28.3855 11.436 28.456 10.962 28.5382 10.572C28.638 10.116 28.6967 9.672 28.7025 9.3C28.7084 8.79 28.6908 8.688 28.544 8.37C28.2975 7.83 27.9276 7.518 26.9589 7.014C26.501 6.78 26.0372 6.522 25.9315 6.438C25.6614 6.234 25.5382 5.946 25.3092 4.98C24.9922 3.672 24.6869 3.126 24.0822 2.814C23.6712 2.598 23.5186 2.568 22.3562 2.52C20.8767 2.454 20.9061 2.472 20.0489 1.41C19.1507 0.294001 18.7045 0 17.9061 0C17.4305 0 17.2309 0.066 16.2329 0.534C15.4638 0.893999 15.3464 0.93 15 0.93C14.6536 0.93 14.5362 0.893999 13.7671 0.534C13.2975 0.312 12.8102 0.101999 12.681 0.066C12.3581 -0.0240002 11.7299 -0.012001 11.454 0.0900002ZM12.8748 1.584C13.1389 1.704 13.5734 1.902 13.8434 2.022C14.2485 2.208 14.407 2.25 14.8356 2.268C15.4814 2.304 15.7162 2.238 16.6614 1.794C17.5186 1.386 17.8474 1.284 18.0704 1.344C18.2935 1.398 18.5871 1.68 19.1096 2.34C19.82 3.24 20.184 3.534 20.7828 3.72C20.9119 3.756 21.5225 3.81 22.1331 3.834C22.9198 3.864 23.3014 3.9 23.4247 3.966C23.683 4.092 23.8297 4.428 24.0587 5.382C24.4579 7.038 24.7162 7.368 26.2427 8.142C26.6654 8.352 27.0998 8.622 27.2113 8.736C27.3992 8.922 27.4168 8.97 27.411 9.288C27.4051 9.474 27.3346 9.942 27.2524 10.32C27.047 11.262 27.0117 11.616 27.0881 12.03C27.1761 12.51 27.364 12.888 27.8278 13.5C28.3738 14.214 28.6673 14.676 28.7084 14.886C28.7671 15.144 28.5499 15.552 27.9511 16.332C26.9824 17.592 26.8943 18.03 27.2524 19.68C27.3346 20.058 27.4051 20.526 27.411 20.712C27.4168 21.012 27.3933 21.078 27.2407 21.24C27.1409 21.348 26.7065 21.618 26.272 21.84C24.7045 22.644 24.4579 22.956 24.0587 24.618C23.8297 25.572 23.683 25.908 23.4247 26.034C23.3014 26.1 22.9198 26.136 22.1331 26.166C21.5225 26.19 20.9119 26.244 20.7828 26.28C20.184 26.466 19.82 26.76 19.1096 27.66C18.5871 28.32 18.2935 28.602 18.0704 28.656C17.8415 28.716 17.4834 28.602 16.6497 28.206C15.7515 27.774 15.5636 27.72 15 27.72C14.4364 27.72 14.2485 27.774 13.3503 28.206C12.5166 28.602 12.1585 28.716 11.9296 28.656C11.7065 28.602 11.4129 28.32 10.8904 27.66C10.18 26.76 9.81605 26.466 9.21722 26.28C9.08806 26.244 8.48337 26.19 7.86693 26.166C7.08024 26.136 6.69863 26.1 6.57534 26.034C6.31703 25.908 6.17025 25.572 5.94129 24.618C5.54207 22.95 5.28376 22.626 3.76321 21.858C3.37573 21.666 2.9589 21.414 2.82387 21.294C2.59491 21.084 2.58317 21.06 2.58904 20.724C2.59491 20.526 2.67123 20.046 2.7593 19.65C2.87084 19.158 2.92368 18.756 2.92368 18.39C2.92955 17.592 2.80039 17.322 1.81996 16.02C1.60861 15.738 1.39726 15.396 1.34442 15.252C1.25049 15.018 1.25049 14.982 1.35029 14.73C1.40313 14.58 1.63796 14.208 1.8728 13.902C2.80626 12.684 2.92955 12.414 2.92368 11.61C2.92368 11.244 2.87084 10.842 2.7593 10.35C2.67123 9.954 2.59491 9.474 2.58904 9.276C2.58317 8.94 2.59491 8.916 2.82387 8.706C2.9589 8.586 3.37573 8.334 3.76321 8.142C5.28376 7.374 5.54207 7.05 5.94129 5.382C6.17025 4.428 6.31703 4.092 6.57534 3.966C6.69863 3.9 7.08024 3.864 7.86693 3.834C8.48337 3.81 9.08806 3.756 9.21722 3.72C9.81605 3.54 10.1742 3.24 10.8904 2.34C11.3542 1.758 11.5949 1.512 11.8004 1.386C11.9824 1.278 12.3581 1.344 12.8748 1.584Z" fill="#1592E6"/>
<path d="M13.5912 4.41599C9.43468 4.99199 5.98263 8.10599 4.90239 12.252C3.40533 18.03 6.79867 23.886 12.5051 25.374C14.1079 25.788 16.0452 25.77 17.7184 25.314C22.2331 24.084 25.4503 19.794 25.4503 15C25.4503 10.152 22.2155 5.88599 17.6128 4.66199C16.3799 4.33199 14.8711 4.24199 13.5912 4.41599ZM15.9278 5.70599C19.057 6.05399 21.7517 7.94999 23.1607 10.8C25.4386 15.414 23.6128 21.042 19.0805 23.352C16.8848 24.474 14.4366 24.648 12.0766 23.844C9.82803 23.082 7.90239 21.366 6.82803 19.17C5.53644 16.536 5.53644 13.464 6.82803 10.83C8.51883 7.36199 12.2057 5.29199 15.9278 5.70599Z" fill="#1592E6"/>
<path d="M11.2188 9.29994C10.8372 9.40194 10.3206 9.71994 10.0329 10.0319C9.30492 10.8239 9.16402 12.0659 9.68652 12.9839C9.89787 13.3559 10.4262 13.8419 10.8137 14.0279C11.119 14.1719 11.2188 14.1899 11.8 14.1899C12.4047 14.1899 12.4693 14.1779 12.8392 13.9979C13.3558 13.7519 13.7785 13.3199 14.0192 12.7919C14.1953 12.4139 14.2071 12.3479 14.2071 11.7299C14.2071 11.1059 14.1953 11.0459 14.0133 10.6679C13.7609 10.1459 13.2032 9.60594 12.7276 9.41994C12.3401 9.26994 11.5769 9.20994 11.2188 9.29994ZM12.4458 10.7819C13.1621 11.2919 13.0799 12.3719 12.2873 12.7859C11.6533 13.1159 10.802 12.6659 10.6846 11.9339C10.5965 11.4059 10.9429 10.7999 11.4184 10.6319C11.7354 10.5299 12.1758 10.5899 12.4458 10.7819Z" fill="#1592E6"/>
<path d="M18.8992 10.134C18.6467 10.29 18.5234 10.488 18.5234 10.728C18.5234 11.484 19.4393 11.658 19.7915 10.968C20.0675 10.428 19.4041 9.80998 18.8992 10.134Z" fill="#1592E6"/>
<path d="M13.7264 15.372C11.3253 17.826 10.2861 18.93 10.2392 19.062C10.0983 19.5 10.5973 20.01 11.0259 19.866C11.155 19.818 12.2352 18.756 14.6364 16.302L18.0532 12.81V12.546C18.0532 12.33 18.018 12.252 17.8536 12.084C17.6893 11.916 17.6129 11.88 17.4016 11.88H17.1433L13.7264 15.372Z" fill="#1592E6"/>
<path d="M17.4955 15.858C16.8028 16.092 16.2802 16.56 15.9808 17.208C15.8047 17.586 15.793 17.652 15.793 18.27C15.793 18.864 15.8106 18.966 15.9515 19.278C16.0395 19.47 16.2568 19.782 16.4388 19.974C17.1902 20.778 18.2939 20.982 19.2626 20.496C20.7949 19.722 21.1002 17.67 19.8673 16.47C19.3683 15.984 18.9808 15.822 18.2881 15.798C17.9417 15.786 17.6423 15.81 17.4955 15.858ZM18.699 17.232C19.0395 17.412 19.2802 17.76 19.3213 18.15C19.3507 18.402 19.3272 18.504 19.1863 18.78C19.0513 19.056 18.9691 19.14 18.699 19.278C18.429 19.422 18.3292 19.446 18.0826 19.416C17.3135 19.326 16.8262 18.456 17.1667 17.772C17.472 17.16 18.1178 16.938 18.699 17.232Z" fill="#1592E6"/>
</svg>
