<svg width="30" height="30" viewBox="0 0 30 30" fill="none" xmlns="http://www.w3.org/2000/svg">
<path d="M14.4437 0.069521C13.5113 0.431765 13.067 1.07216 13.0545 2.0554C13.0482 2.51467 13.0732 2.65051 13.1921 2.88339C13.2735 3.03863 13.3298 3.17448 13.3173 3.18094C13.3048 3.18741 12.9043 3.27798 12.4224 3.36854C7.81673 4.29355 3.99325 7.66372 2.34747 12.2435C1.93446 13.382 1.65286 14.7469 1.5277 16.17L1.49016 16.6034L1.16475 16.7587C0.520206 17.0627 0.0696485 17.729 0.0133289 18.4664C-0.0555063 19.4043 0.526464 20.3035 1.39003 20.5687L1.62157 20.6399L2.09716 22.1147C2.35998 22.9233 2.61655 23.6219 2.67287 23.6737C2.7417 23.7319 3.0984 23.7642 3.89939 23.7901L5.02578 23.8224L4.78799 24.1135C3.7492 25.3814 3.77423 27.4384 4.83805 28.7063L5.03204 28.9327L3.13594 28.965L1.23985 28.9974L1.12095 29.1526C0.958248 29.3596 0.970764 29.6507 1.1585 29.8383L1.30868 30H4.55645C6.58396 30 7.94189 29.9741 8.17343 29.9288C8.77417 29.8189 9.50632 29.4178 9.96314 28.9456C10.664 28.2211 10.9832 27.4255 10.9832 26.3776C10.9832 25.459 10.7454 24.7474 10.226 24.1071L9.99443 23.8224L12.2597 23.803C13.4988 23.7966 15.5388 23.7966 16.7778 23.803L19.0431 23.8224L18.8053 24.1135C17.7665 25.3814 17.7916 27.4384 18.8554 28.7063L19.0494 28.9327L17.1533 28.965L15.2572 28.9974L15.1383 29.1526C14.9756 29.3596 14.9881 29.6507 15.1758 29.8383L15.326 30H18.5738C20.6013 30 21.9592 29.9741 22.1908 29.9288C22.7915 29.8189 23.5237 29.4178 23.9805 28.9456C24.6814 28.2211 25.0005 27.4255 25.0005 26.3776C25.0005 25.459 24.7627 24.7474 24.2433 24.1071L24.0118 23.8224L25.6388 23.7901C26.859 23.7642 27.2908 23.7383 27.3659 23.6737C27.4222 23.6219 27.6788 22.9233 27.9416 22.1147L28.4172 20.6399L28.6488 20.5687C29.018 20.4523 29.4435 20.1353 29.6437 19.8313C29.9379 19.3849 30.0067 19.1456 30.0004 18.5828C30.0004 18.1494 29.9691 18.0071 29.8315 17.729C29.6125 17.2826 29.2808 16.9527 28.874 16.7587L28.5486 16.6034L28.5048 16.17C28.3234 14.1518 27.9103 12.554 27.1532 10.9433C25.2571 6.90689 21.4398 3.97012 17.1971 3.27798C16.928 3.23916 16.709 3.18741 16.709 3.17448C16.709 3.16154 16.7716 3.0257 16.8467 2.87692C17.0532 2.47586 17.0469 1.63494 16.8341 1.18213C16.6402 0.768135 16.2584 0.380016 15.8642 0.185955C15.4825 -0.0016346 14.7879 -0.0598526 14.4437 0.069521ZM15.5701 1.19507C15.883 1.44088 15.9893 1.64787 15.9893 2.04893C15.9893 2.35296 15.9581 2.46292 15.8204 2.65051C15.3823 3.24563 14.6189 3.22622 14.1809 2.6117C13.9806 2.33355 13.9994 1.75784 14.2184 1.46028C14.3123 1.33738 14.4812 1.1886 14.5939 1.12391C14.8567 0.98807 15.3448 1.02041 15.5701 1.19507ZM16.2146 4.19006C19.988 4.58464 23.3297 6.66108 25.4448 9.92129C26.5962 11.7066 27.2971 13.8025 27.4973 16.1053L27.5411 16.5452H15.0194H2.49765L2.5352 16.1053C2.60403 15.3744 2.80428 14.1906 2.97324 13.5631C3.94945 9.98597 6.44629 6.93923 9.69406 5.36735C11.102 4.68814 12.2034 4.38412 14.0494 4.16418C14.4812 4.1189 15.6139 4.13184 16.2146 4.19006ZM28.5737 17.7484C28.9053 18.0006 29.0055 18.2076 29.0055 18.6152C29.0055 19.0227 28.9053 19.2297 28.5737 19.482L28.4047 19.6178L15.1571 19.6372C5.98947 19.6501 1.84059 19.6372 1.67789 19.5855C1.04586 19.3979 0.801805 18.4987 1.23359 17.9618C1.56525 17.5543 0.570268 17.5866 15.0945 17.5996L28.4047 17.6125L28.5737 17.7484ZM27.0092 21.7007L26.6776 22.7228H15.0194H3.36122L3.02956 21.7007L2.70416 20.6851H15.0194H27.3346L27.0092 21.7007ZM8.53638 24.0359C9.10583 24.3076 9.46878 24.6828 9.75038 25.2649C9.9694 25.7307 9.98191 25.7889 9.98191 26.3776C9.98191 26.9662 9.9694 27.0244 9.75038 27.4902C9.46878 28.0788 9.10583 28.4411 8.52386 28.7257C8.14214 28.9133 8.04827 28.9327 7.5101 28.9327C6.97194 28.9327 6.87807 28.9133 6.49635 28.7257C5.91438 28.4411 5.55143 28.0788 5.26983 27.4902C5.05081 27.0244 5.0383 26.9662 5.0383 26.384C5.0383 25.8212 5.05707 25.7242 5.23854 25.3296C5.48885 24.7798 5.84555 24.3787 6.31488 24.1265C6.80298 23.8548 7.07832 23.7901 7.64778 23.816C8.0295 23.8354 8.22349 23.8871 8.53638 24.0359ZM22.5537 24.0359C23.1232 24.3076 23.4861 24.6828 23.7677 25.2649C23.9867 25.7307 23.9993 25.7889 23.9993 26.3776C23.9993 26.9662 23.9867 27.0244 23.7677 27.4902C23.4861 28.0788 23.1232 28.4411 22.5412 28.7257C22.1595 28.9133 22.0656 28.9327 21.5275 28.9327C20.9893 28.9327 20.8954 28.9133 20.5137 28.7257C19.9317 28.4411 19.5688 28.0788 19.2872 27.4902C19.0682 27.0244 19.0556 26.9662 19.0556 26.384C19.0556 25.8212 19.0744 25.7242 19.2559 25.3296C19.5062 24.7798 19.8629 24.3787 20.3322 24.1265C20.8203 23.8548 21.0957 23.7901 21.6651 23.816C22.0468 23.8354 22.2408 23.8871 22.5537 24.0359Z" fill="#1592E6"/>
<path d="M14.6803 5.30909C14.4676 5.52903 14.4613 5.82012 14.6741 6.03358C14.8055 6.1759 14.8868 6.1953 15.3436 6.20824C16.2135 6.23411 16.2823 6.22118 16.4075 6.06593C16.5702 5.85893 16.5514 5.5355 16.3699 5.36084C16.2385 5.23794 16.1321 5.21207 15.5314 5.17972C14.8493 5.14091 14.843 5.14091 14.6803 5.30909Z" fill="#1592E6"/>
<path d="M17.6594 5.76195C17.5092 5.93013 17.4779 6.24063 17.6031 6.40881C17.6406 6.4735 17.9347 6.60934 18.2414 6.71931C21.7958 7.96129 24.3364 10.8269 25.2563 14.6305C25.4253 15.342 25.5379 15.5102 25.857 15.5102C26.0823 15.5102 26.3451 15.2515 26.3451 15.0251C26.3451 14.7599 26.0448 13.5955 25.8007 12.9228C25.2313 11.3509 24.424 10.0442 23.2538 8.78928C21.9647 7.41792 20.4754 6.43469 18.7545 5.8137C18.0849 5.56789 17.8409 5.56142 17.6594 5.76195Z" fill="#1592E6"/>
<path d="M7.0082 24.9091C6.70157 25.0126 6.17592 25.5689 6.08206 25.8988C5.90684 26.5069 6.032 26.992 6.47629 27.4448C7.10833 28.1046 7.90932 28.1046 8.54135 27.4448C9.17964 26.7915 9.17964 25.9635 8.54135 25.3102C8.10331 24.8509 7.59017 24.7215 7.0082 24.9091ZM7.853 26.0217C8.16589 26.3387 7.94686 26.895 7.50882 26.895C7.38993 26.895 7.25851 26.8368 7.16465 26.7333C7.06452 26.6363 7.0082 26.5004 7.0082 26.3775C7.0082 26.2546 7.06452 26.1188 7.16465 26.0217C7.25851 25.9182 7.38993 25.86 7.50882 25.86C7.62772 25.86 7.75913 25.9182 7.853 26.0217Z" fill="#1592E6"/>
<path d="M21.0258 24.9091C20.7192 25.0126 20.1935 25.5689 20.0996 25.8988C19.9244 26.5069 20.0496 26.992 20.4939 27.4448C21.1259 28.1046 21.9269 28.1046 22.5589 27.4448C22.8843 27.1149 23.0283 26.785 23.0283 26.3775C23.0283 25.97 22.8843 25.6401 22.5589 25.3102C22.1209 24.8509 21.6078 24.7215 21.0258 24.9091ZM21.8706 26.0217C22.1835 26.3387 21.9644 26.895 21.5264 26.895C21.2698 26.895 21.0258 26.6427 21.0258 26.3775C21.0258 26.1123 21.2698 25.86 21.5264 25.86C21.6453 25.86 21.7767 25.9182 21.8706 26.0217Z" fill="#1592E6"/>
<path d="M3.66035 0.664695C3.56023 0.761725 3.50391 0.897567 3.50391 1.02047C3.50391 1.14338 3.56023 1.27922 3.66035 1.37625C3.79176 1.51856 3.86686 1.53796 4.25484 1.53796C4.64282 1.53796 4.71791 1.51856 4.84932 1.37625C5.05583 1.16925 5.05583 0.871692 4.84932 0.664695C4.71791 0.522385 4.64282 0.502979 4.25484 0.502979C3.86686 0.502979 3.79176 0.522385 3.66035 0.664695Z" fill="#1592E6"/>
<path d="M6.16426 0.664695C6.06413 0.761725 6.00781 0.897567 6.00781 1.02047C6.00781 1.14338 6.06413 1.27922 6.16426 1.37625L6.31444 1.53796H8.51091H10.7074L10.8576 1.37625C10.9577 1.27922 11.014 1.14338 11.014 1.02047C11.014 0.897567 10.9577 0.761725 10.8576 0.664695L10.7074 0.502979H8.51091H6.31444L6.16426 0.664695Z" fill="#1592E6"/>
<path d="M2.1584 2.73464C2.05827 2.83167 2.00195 2.96751 2.00195 3.09042C2.00195 3.21332 2.05827 3.34916 2.1584 3.44619L2.30858 3.60791H5.50629H8.704L8.85418 3.44619C8.95431 3.34916 9.01063 3.21332 9.01063 3.09042C9.01063 2.96751 8.95431 2.83167 8.85418 2.73464L8.704 2.57292H5.50629H2.30858L2.1584 2.73464Z" fill="#1592E6"/>
<path d="M0.156444 4.80458C0.0563197 4.90161 0 5.03745 0 5.16035C0 5.28326 0.0563197 5.4191 0.156444 5.51613L0.306629 5.67785H3.00372H5.7008L5.85099 5.51613C6.0575 5.30913 6.0575 5.01157 5.85099 4.80458L5.7008 4.64286H3.00372H0.306629L0.156444 4.80458Z" fill="#1592E6"/>
</svg>
