<svg width="30" height="30" viewBox="0 0 30 30" fill="none" xmlns="http://www.w3.org/2000/svg">
<path d="M2.61779 0.113561C1.36298 0.452442 0.302885 1.57724 0.0721154 2.81019C0.0288462 3.03371 0 4.61275 0 6.55951C0 9.34988 0.0216346 9.9988 0.108173 10.3521C0.432692 11.5923 1.39904 12.5512 2.64663 12.8757C3.25962 13.0343 9.72836 13.0343 10.3486 12.8757C11.6034 12.544 12.6418 11.4841 12.9014 10.2584C12.9519 10.006 12.9808 8.72259 12.9808 6.47299C12.9808 3.68263 12.9591 2.99045 12.8726 2.65156C12.5481 1.40419 11.5889 0.438022 10.3486 0.113561C9.75 -0.0378542 3.19471 -0.0378542 2.61779 0.113561ZM10.1394 2.50015C10.2476 2.57946 10.4062 2.73809 10.4856 2.84624C10.6298 3.04092 10.637 3.14186 10.6587 6.42973C10.6803 9.78249 10.6731 9.82575 10.5216 10.0925C10.4351 10.2439 10.2476 10.4386 10.0962 10.5251C9.82933 10.6766 9.75 10.6766 6.49038 10.6766C3.23077 10.6766 3.15144 10.6766 2.88462 10.5251C2.73317 10.4386 2.54567 10.2512 2.45913 10.0997C2.30769 9.83296 2.30769 9.75365 2.30769 6.54509C2.30769 4.38923 2.33654 3.19233 2.38702 3.05534C2.43029 2.94718 2.53125 2.77414 2.61779 2.68041C2.95673 2.31268 2.96394 2.31268 6.57692 2.33431C9.85096 2.34873 9.94471 2.35594 10.1394 2.50015Z" fill="#1592E6"/>
<path d="M21.585 0.106433C20.6764 0.32995 20.5322 0.445314 17.9072 3.06263C15.5778 5.38433 15.4264 5.55016 15.1884 6.06209C14.662 7.17968 14.7124 8.36216 15.3399 9.4509C15.585 9.87631 20.1283 14.4188 20.5538 14.6639C21.6355 15.284 22.8543 15.3417 23.9432 14.8153C24.4408 14.5702 24.6572 14.3755 26.8134 12.2341C28.0971 10.9578 29.2509 9.75373 29.3807 9.55906C30.1235 8.43426 30.1812 6.97058 29.5249 5.87462C29.186 5.30501 24.7509 0.849088 24.174 0.502996C23.4456 0.0631714 22.4288 -0.0954533 21.585 0.106433ZM22.8903 2.42092C23.1932 2.56512 27.5201 6.90569 27.6139 7.16526C27.7293 7.4753 27.7076 7.84302 27.5562 8.13864C27.4769 8.28284 26.4312 9.38601 25.2269 10.5829C22.8687 12.9262 22.7822 12.9911 22.162 12.883C21.924 12.8325 21.6067 12.5513 19.5298 10.4748C17.4528 8.39821 17.1716 8.08096 17.1211 7.84302C17.0129 7.22294 17.0778 7.13642 19.4576 4.74983C20.6692 3.5313 21.7581 2.48581 21.8807 2.42813C22.1692 2.28393 22.5947 2.28393 22.8903 2.42092Z" fill="#1592E6"/>
<path d="M2.59615 15.9689C1.3774 16.315 0.425481 17.2884 0.108173 18.4997C0.0144231 18.8602 0 19.5596 0 22.8691C0 25.2485 0.0288462 26.9645 0.0721154 27.1952C0.252404 28.1398 1.01683 29.1708 1.86058 29.5962C2.63221 29.9856 2.76923 30 6.49038 30C10.262 30 10.3774 29.9928 11.1851 29.5602C11.6899 29.2862 12.3173 28.6517 12.5769 28.1398C12.9736 27.3538 12.9808 27.2817 12.9808 22.8979C12.9808 18.7232 12.9663 18.5718 12.6779 17.8868C12.375 17.1874 11.5385 16.4015 10.7452 16.0698C10.3486 15.904 10.3341 15.904 6.63461 15.8896C3.79327 15.8824 2.84135 15.8968 2.59615 15.9689ZM10.0962 18.3194C10.2837 18.4131 10.4351 18.5646 10.5288 18.752C10.6659 19.026 10.6731 19.1702 10.6731 22.9556V26.878L10.5144 27.1159C10.4207 27.2457 10.2548 27.4259 10.1466 27.5053C9.94471 27.6567 9.87981 27.6567 6.49038 27.6567C3.11538 27.6567 3.03606 27.6567 2.84135 27.5053C2.73317 27.4259 2.57452 27.2673 2.49519 27.1592C2.34375 26.9645 2.34375 26.8708 2.32212 23.0205C2.30048 18.5574 2.28606 18.6871 2.84135 18.3555L3.13702 18.1752H6.47596C9.67788 18.1752 9.82211 18.1824 10.0962 18.3194Z" fill="#1592E6"/>
<path d="M18.2466 17.1586C17.0567 17.5407 16.0903 18.6295 15.8668 19.8264C15.8235 20.0499 15.7947 21.6217 15.8019 23.5757C15.8019 26.5102 15.8163 26.9933 15.9245 27.4115C16.1553 28.284 16.725 29.0266 17.5471 29.5241C18.3187 29.9856 18.499 30 22.8836 30C25.249 30 26.9653 29.9712 27.1961 29.9279C28.1408 29.7476 29.1721 28.9834 29.5976 28.1398C29.987 27.3683 30.0014 27.2241 30.0014 23.5324C30.0014 21.2684 29.9726 19.9994 29.9221 19.747C29.6841 18.6439 28.8403 17.6561 27.7803 17.2235L27.3692 17.0576L23.0062 17.0432C18.9966 17.0288 18.6144 17.036 18.2466 17.1586ZM27.2033 19.5091C27.6937 19.8408 27.7009 19.8768 27.6793 23.6334C27.6577 26.8635 27.6504 26.9645 27.5062 27.1592C27.4269 27.2673 27.2682 27.4259 27.1601 27.5053C26.9653 27.6567 26.8932 27.6567 22.898 27.6567C18.9028 27.6567 18.8307 27.6567 18.636 27.5053C18.5278 27.4259 18.3692 27.2673 18.2899 27.1592C18.1456 26.9645 18.1384 26.8635 18.1168 23.5901L18.0952 20.2229L18.261 19.9129C18.5855 19.3072 18.3908 19.3288 22.9341 19.3288H26.9365L27.2033 19.5091Z" fill="#1592E6"/>
</svg>
