<svg width="18" height="18" viewBox="0 0 18 18" fill="none" xmlns="http://www.w3.org/2000/svg">
<path d="M2.84536 0.0535755C2.49016 0.148529 2.3108 0.292719 1.47732 1.15434C0.584047 2.07574 0.457442 2.22697 0.288635 2.59271C-0.23537 3.71458 -0.0454622 5.21626 0.854841 7.08368C2.64842 10.8045 6.98464 15.1829 10.7476 17.0679C12.921 18.1546 14.7392 18.2918 15.8435 17.4548C16.1881 17.1945 17.6652 15.7315 17.7813 15.5381C18.1294 14.9578 18.0556 14.2123 17.6054 13.7234C17.4858 13.5898 15.3793 11.6907 14.7181 11.121C14.2398 10.7025 13.5681 10.6146 13.0125 10.8959C12.9034 10.9522 12.5236 11.23 12.1649 11.5184C11.8062 11.8032 11.444 12.067 11.3596 12.1057C11.145 12.2006 10.8215 12.1971 10.6034 12.1022C10.396 12.0072 9.67852 11.5184 9.14396 11.1034C8.02562 10.2418 7.16752 9.31334 6.28831 8.02267C6.11599 7.76946 5.94015 7.4846 5.89795 7.39316C5.80299 7.17864 5.80299 6.85157 5.89443 6.64056C5.93312 6.55616 6.19688 6.19393 6.48174 5.83521C6.77012 5.4765 7.04795 5.09317 7.10421 4.98415C7.38556 4.43201 7.29764 3.76029 6.87914 3.28201C6.27776 2.5892 4.40682 0.514278 4.2767 0.394707C3.89688 0.0465431 3.35529 -0.08358 2.84536 0.0535755ZM3.70697 0.669018C3.84413 0.735838 4.12548 1.03125 5.21217 2.24807C6.05269 3.19057 6.57669 3.8025 6.62241 3.90097C6.7244 4.12604 6.7244 4.49531 6.61889 4.70983C6.57318 4.79775 6.29535 5.17405 5.99642 5.54684C5.4267 6.26427 5.33174 6.42252 5.27547 6.78475C5.19459 7.28062 5.32822 7.63582 5.8874 8.43765C6.89672 9.87603 7.88846 10.8994 9.20375 11.856C9.72776 12.2358 10.199 12.5418 10.3889 12.6262C10.7652 12.7915 11.2716 12.7774 11.655 12.5875C11.771 12.5277 12.1508 12.2534 12.499 11.972C12.8472 11.6907 13.2024 11.4269 13.2903 11.3847C13.5048 11.2757 13.8741 11.2757 14.0992 11.3777C14.1976 11.4234 14.8095 11.9474 15.7521 12.7879C17.4542 14.3107 17.4225 14.272 17.4225 14.7503C17.4225 14.9684 17.405 15.0633 17.3452 15.1723C17.2783 15.3025 16.4765 16.1184 15.7802 16.7655C15.0381 17.4548 14.1414 17.606 12.819 17.2649C9.43234 16.3927 4.52991 12.1971 1.98374 7.99805C1.68481 7.5057 1.12915 6.3768 0.963863 5.93017C0.679001 5.14944 0.538328 4.39684 0.56998 3.81305C0.594597 3.38751 0.661417 3.12375 0.826707 2.78262C0.963863 2.50128 1.13267 2.30785 2.10331 1.32314C2.8137 0.598682 2.88756 0.552963 3.30606 0.574064C3.4608 0.581099 3.59444 0.612749 3.70697 0.669018Z" fill="#1592E6"/>
<path d="M1.65698 2.79979C1.05209 3.44337 1.16815 4.81844 1.96646 6.47486C2.13527 6.82654 2.2056 6.90039 2.36034 6.90039C2.47992 6.90039 2.63466 6.75972 2.63466 6.6507C2.63466 6.61553 2.5397 6.3799 2.42716 6.12669C1.87854 4.91691 1.69567 3.93924 1.92778 3.42578C1.96998 3.33083 2.03328 3.21829 2.06845 3.1796C2.26187 2.9686 2.13879 2.66967 1.85392 2.66967C1.81524 2.66967 1.72732 2.72945 1.65698 2.79979Z" fill="#1592E6"/>
</svg>
