<svg width="137" height="43" viewBox="0 0 137 43" fill="none" xmlns="http://www.w3.org/2000/svg">
<path d="M14.3709 41.1807C13.8226 41.5831 13.0587 41.9168 12.0811 42.1819C11.1026 42.447 9.84126 42.5794 8.29633 42.5794C6.75103 42.5794 5.28362 42.4514 3.89447 42.1953C2.5046 41.9398 1.50832 41.6564 0.905103 41.3453C0.301701 41.0346 0 40.7331 0 40.44C0 39.4167 0.146094 38.3516 0.438642 37.2454C0.73101 36.1391 1.07866 35.5859 1.48104 35.5859C1.55373 35.5859 2.31274 35.8329 3.75717 36.3262C5.2016 36.8202 6.28959 37.067 7.02078 37.067C7.75215 37.067 8.22777 36.9894 8.44709 36.8338C8.66641 36.6787 8.77607 36.4546 8.77607 36.1618C8.77607 35.8695 8.57487 35.6091 8.17285 35.38C7.77046 35.1518 7.26774 34.9511 6.66452 34.7768C6.06112 34.6035 5.4071 34.3516 4.70337 34.0227C3.99947 33.6937 3.34599 33.3279 2.74259 32.9257C2.13937 32.5237 1.63611 31.9519 1.23408 31.2115C0.831696 30.4712 0.630682 29.6255 0.630682 28.6748C0.630682 24.6157 3.05326 22.5864 7.89843 22.5864C9.70863 22.5864 11.2721 22.7005 12.5883 22.9292C13.9048 23.1578 14.8327 23.4136 15.372 23.6968C15.911 23.9807 16.1811 24.2593 16.1811 24.5334C16.1811 25.4842 15.9569 26.508 15.5093 27.6051C15.061 28.7022 14.6268 29.2505 14.2065 29.2505C14.1333 29.2505 13.8953 29.1682 13.4936 29.0038C12.2866 28.4736 11.2855 28.2085 10.4903 28.2085C9.69481 28.2085 9.15548 28.2817 8.87227 28.4278C8.58869 28.5745 8.44709 28.7983 8.44709 29.1C8.44709 29.4017 8.6481 29.6483 9.05049 29.8403C9.45252 30.0324 9.95092 30.2063 10.5452 30.3613C11.1392 30.5169 11.7882 30.7549 12.4925 31.0746C13.196 31.3946 13.8499 31.7695 14.4533 32.1988C15.0565 32.6285 15.5592 33.2369 15.9618 34.0227C16.3636 34.809 16.5652 35.723 16.5652 36.7653C16.5652 37.8622 16.2814 38.859 15.7148 39.7544C15.3672 40.3031 14.9196 40.7791 14.3709 41.1807Z" fill="#F5E731"/>
<path d="M33.8021 40.5912C32.2936 41.8985 30.1087 42.552 27.2474 42.552C24.3855 42.552 22.1873 41.8985 20.6515 40.5912C19.1155 39.2843 18.3475 37.3138 18.3475 34.6809V24.6156C18.3475 24.1588 18.8641 23.7473 19.8973 23.3813C20.93 23.0159 22.1323 22.833 23.5037 22.833C24.6007 22.833 25.3139 23.0434 25.6429 23.4637C25.8804 23.7929 25.9995 24.0766 25.9995 24.3139V32.4869C25.9995 34.5533 26.0771 35.9198 26.2325 36.5871C26.3877 37.2546 26.7216 37.5882 27.2336 37.5882C27.7453 37.5882 28.07 37.2637 28.2073 36.6144C28.3444 35.9657 28.4128 34.5805 28.4128 32.4593V24.6156C28.4128 24.1588 28.9293 23.7473 29.9626 23.3813C30.9953 23.0159 32.1881 22.833 33.5417 22.833C34.6932 22.833 35.4242 23.0434 35.7356 23.4637C35.9549 23.7929 36.0646 24.0766 36.0646 24.3139V34.6809C36.0646 37.3138 35.3104 39.2843 33.8021 40.5912Z" fill="#F5E731"/>
<path d="M52.2182 41.1807C51.6696 41.5831 50.9061 41.9168 49.9285 42.1819C48.9502 42.447 47.6882 42.5794 46.1433 42.5794C44.5984 42.5794 43.1311 42.4514 41.7418 42.1953C40.3519 41.9398 39.3557 41.6564 38.7521 41.3453C38.1487 41.0346 37.8472 40.7331 37.8472 40.44C37.8472 39.4167 37.9934 38.3516 38.286 37.2454C38.5782 36.1391 38.926 35.5859 39.328 35.5859C39.4014 35.5859 40.1597 35.8329 41.6043 36.3262C43.0489 36.8202 44.1366 37.067 44.8685 37.067C45.5991 37.067 46.0751 36.9894 46.2944 36.8338C46.5138 36.6787 46.6238 36.4546 46.6238 36.1618C46.6238 35.8695 46.4219 35.6091 46.0198 35.38C45.6178 35.1518 45.1149 34.9511 44.5115 34.7768C43.9083 34.6035 43.2541 34.3516 42.5511 34.0227C41.8468 33.6937 41.1933 33.3279 40.5899 32.9257C39.9867 32.5237 39.4831 31.9519 39.0816 31.2115C38.679 30.4712 38.478 29.6255 38.478 28.6748C38.478 24.6157 40.9006 22.5864 45.7458 22.5864C47.5558 22.5864 49.1194 22.7005 50.4359 22.9292C51.752 23.1578 52.68 23.4136 53.219 23.6968C53.7587 23.9807 54.0283 24.2593 54.0283 24.5334C54.0283 25.4842 53.8043 26.508 53.3567 27.6051C52.9083 28.7022 52.4742 29.2505 52.0537 29.2505C51.9803 29.2505 51.743 29.1682 51.341 29.0038C50.1336 28.4736 49.1329 28.2085 48.3378 28.2085C47.5422 28.2085 47.0026 28.2817 46.7196 28.4278C46.436 28.5745 46.2944 28.7983 46.2944 29.1C46.2944 29.4017 46.4951 29.6483 46.8978 29.8403C47.2999 30.0324 47.7983 30.2063 48.3925 30.3613C48.9862 30.5169 49.6358 30.7549 50.3395 31.0746C51.0432 31.3946 51.6972 31.7695 52.3006 32.1988C52.9039 32.6285 53.4069 33.2369 53.809 34.0227C54.211 34.809 54.4122 35.723 54.4122 36.7653C54.4122 37.8622 54.1286 38.859 53.562 39.7544C53.2145 40.3031 52.7669 40.7791 52.2182 41.1807Z" fill="#F5E731"/>
<path d="M62.1874 42.1133C61.081 42.2596 59.9659 42.3326 58.8416 42.3326C57.717 42.3326 56.9946 42.2688 56.675 42.1406C56.3546 42.013 56.1949 41.8114 56.1949 41.5374V24.6703C56.1949 24.2135 56.7249 23.7975 57.7854 23.4226C58.8458 23.0482 59.9976 22.8603 61.2412 22.8603C62.978 22.8603 63.8465 23.272 63.8465 24.0946V30.1284H66.2874V24.6703C66.2874 24.2135 66.8223 23.7975 67.8919 23.4226C68.9616 23.0482 70.1178 22.8603 71.3612 22.8603C73.0797 22.8603 73.9392 23.272 73.9392 24.0946V41.5374C73.9392 41.7754 73.3812 41.9671 72.2663 42.1133C71.1511 42.2596 70.0354 42.3326 68.9203 42.3326C67.8051 42.3326 67.0873 42.2688 66.7677 42.1406C66.4473 42.013 66.2874 41.8114 66.2874 41.5374V35.2569H63.8465V41.5374C63.8465 41.7754 63.2934 41.9671 62.1874 42.1133Z" fill="#F5E731"/>
<path d="M82.1117 42.1542C80.9964 42.2734 79.8766 42.3326 78.752 42.3326C77.6276 42.3326 76.9099 42.2825 76.5992 42.1819C76.288 42.0815 76.1329 41.9123 76.1329 41.6743V24.6157C76.1329 24.2137 76.6629 23.8161 77.7235 23.4226C78.7838 23.0295 79.9725 22.833 81.289 22.833C82.4588 22.833 83.2268 23.0798 83.5925 23.5737C83.7203 23.7564 83.7846 23.9396 83.7846 24.122V41.6743C83.7846 41.8757 83.2268 42.0358 82.1117 42.1542Z" fill="#F5E731"/>
<path d="M114.497 40.5912C112.989 41.8985 110.804 42.552 107.942 42.552C105.081 42.552 102.882 41.8985 101.346 40.5912C99.8105 39.2843 99.0427 37.3138 99.0427 34.6809V24.6156C99.0427 24.1588 99.5591 23.7473 100.592 23.3813C101.625 23.0159 102.828 22.833 104.199 22.833C105.296 22.833 106.009 23.0434 106.338 23.4637C106.575 23.7929 106.694 24.0766 106.694 24.3139V32.4869C106.694 34.5533 106.772 35.9198 106.928 36.5871C107.083 37.2546 107.417 37.5882 107.929 37.5882C108.44 37.5882 108.765 37.2637 108.902 36.6144C109.039 35.9657 109.108 34.5805 109.108 32.4593V24.6156C109.108 24.1588 109.625 23.7473 110.657 23.3813C111.69 23.0159 112.883 22.833 114.237 22.833C115.388 22.833 116.119 23.0434 116.431 23.4637C116.65 23.7929 116.76 24.0766 116.76 24.3139V34.6809C116.76 37.3138 116.005 39.2843 114.497 40.5912Z" fill="#F04E2C"/>
<path d="M127.895 34.1873L127.483 29.2504H126.88L126.414 34.1873H127.895ZM124.864 42.031C124.343 42.2325 123.406 42.3327 122.053 42.3327C120.7 42.3327 119.571 42.2092 118.666 41.9626C117.761 41.7156 117.308 41.4003 117.308 41.0164C117.308 40.5774 118.122 37.7759 119.749 32.6102C121.376 27.4451 122.309 24.4697 122.547 23.6831C122.638 23.4456 123.374 23.2491 124.754 23.0935C126.134 22.9384 127.616 22.8603 129.197 22.8603C130.778 22.8603 131.652 23.1347 131.817 23.6831C135.272 35.1656 137 40.9983 137 41.1808C137 41.3637 136.89 41.5469 136.671 41.7293C136.159 42.1317 135.144 42.3327 133.626 42.3327C130.39 42.3327 128.735 41.9488 128.663 41.1808L128.471 39.3981H125.838L125.7 40.934C125.664 41.4647 125.385 41.83 124.864 42.031Z" fill="#F04E2C"/>
<path d="M94.2341 1.40858L98.1957 32.8788C98.2302 33.1365 98.3004 33.3693 98.0425 33.4038H98.0423C97.7846 33.4382 97.819 33.2058 97.7846 32.9481L93.3003 1.53367C93.2657 1.27576 93.4468 1.03868 93.7047 1.00422C93.9626 0.969757 94.1997 1.15067 94.2341 1.40858Z" fill="#A0755F"/>
<path d="M94.2341 1.40858L98.1957 32.8788C98.2302 33.1365 98.3004 33.3693 98.0425 33.4038H98.0423C97.7846 33.4382 97.819 33.2058 97.7846 32.9481L93.3003 1.53367C93.2657 1.27577 93.4468 1.03868 93.7047 1.00422C93.9626 0.969759 94.1997 1.15067 94.2341 1.40858Z" stroke="black" stroke-width="0.134608" stroke-miterlimit="10"/>
<path d="M99.5683 3.94831L84.905 32.074C84.7866 32.3057 84.7117 32.5368 84.4802 32.4184L84.48 32.4182C84.2483 32.2997 84.4091 32.1283 84.5276 31.8968L98.7294 3.51936C98.8479 3.28765 99.1316 3.19594 99.3633 3.31439C99.595 3.43285 99.6867 3.7166 99.5683 3.94831Z" fill="#A0755F"/>
<path d="M99.5683 3.94831L84.905 32.074C84.7866 32.3057 84.7117 32.5368 84.4802 32.4184L84.48 32.4182C84.2483 32.2997 84.4091 32.1283 84.5276 31.8968L98.7294 3.51936C98.8479 3.28765 99.1316 3.19594 99.3633 3.31439C99.595 3.43285 99.6867 3.7166 99.5683 3.94831Z" stroke="black" stroke-width="0.134608" stroke-miterlimit="10"/>
<path d="M97.5715 32.6848C97.5715 36.0257 94.8632 38.734 91.5222 38.734C88.1813 38.734 85.473 36.0257 85.473 32.6848C85.473 29.3438 88.1813 26.6355 91.5222 26.6355C94.8632 26.6355 97.5715 29.3438 97.5715 32.6848Z" fill="white"/>
<path d="M97.5715 32.6848C97.5715 36.0257 94.8632 38.734 91.5222 38.734C88.1813 38.734 85.473 36.0257 85.473 32.6848C85.473 29.3438 88.1813 26.6355 91.5222 26.6355C94.8632 26.6355 97.5715 29.3438 97.5715 32.6848Z" stroke="black" stroke-width="0.358954" stroke-miterlimit="10"/>
<path d="M95.3974 32.6358C95.3974 34.815 93.6308 36.5816 91.4516 36.5816C89.2722 36.5816 87.5056 34.815 87.5056 32.6358C87.5056 30.4566 89.2722 28.69 91.4516 28.69C93.6308 28.69 95.3974 30.4566 95.3974 32.6358Z" fill="#F15E3C"/>
<path d="M87.2883 30.8857C87.7368 30.8645 88.1763 30.7822 88.6017 30.6594C89.0251 30.5316 89.4409 30.3771 89.8291 30.1657C89.93 30.1206 90.0212 30.0573 90.1177 30.004C90.2136 29.9489 90.3092 29.8938 90.3986 29.8288L90.6736 29.643L90.9356 29.439C91.2877 29.1676 91.5977 28.8476 91.9136 28.5269C91.7813 28.7076 91.6483 28.8907 91.5022 29.0626C91.3453 29.2243 91.1994 29.3991 91.025 29.5441C90.6965 29.8586 90.3094 30.1048 89.9122 30.3245C89.5104 30.5383 89.0782 30.6939 88.6354 30.7926C88.4141 30.8425 88.1892 30.8744 87.9644 30.8969C87.7384 30.9074 87.5117 30.9162 87.2883 30.8857Z" fill="white"/>
<path d="M87.0219 32.4565C87.6671 32.4486 88.3039 32.3371 88.9159 32.1558C89.2219 32.0643 89.522 31.9554 89.8146 31.8296L90.2485 31.6294L90.6655 31.3961C90.8085 31.3249 90.9336 31.2244 91.0686 31.14C91.2023 31.0531 91.3351 30.9654 91.457 30.862L91.8332 30.5662L92.1842 30.2401L92.3606 30.0773C92.4186 30.0222 92.4689 29.9598 92.5234 29.9011L92.8456 29.5439C93.0579 29.3032 93.2395 29.0372 93.4461 28.7878C93.3612 28.9247 93.2747 29.0611 93.1862 29.1964C93.0949 29.3296 93.0181 29.4745 92.9143 29.5988L92.608 29.9768C92.5557 30.0389 92.5078 30.105 92.4518 30.1638L92.2815 30.3381C92.1677 30.4542 92.0548 30.5718 91.9371 30.6841L91.5611 30.9962C91.4388 31.1048 91.3026 31.1946 91.1671 31.2852C91.0296 31.3728 90.9022 31.4767 90.7563 31.5508C90.1967 31.8872 89.5825 32.1295 88.952 32.2885C88.6365 32.3685 88.3147 32.4204 87.9923 32.4575C87.6686 32.4796 87.3434 32.4949 87.0219 32.4565Z" fill="white"/>
<path d="M87.2448 33.9729C87.6106 33.9398 87.973 33.8847 88.3296 33.804C88.5085 33.7674 88.6851 33.7194 88.8624 33.6776C89.0371 33.6243 89.2126 33.5744 89.386 33.5186C90.0784 33.2921 90.7464 32.9909 91.3624 32.606L91.5968 32.4674C91.6743 32.4199 91.7457 32.3635 91.8206 32.3122C91.9672 32.2052 92.1198 32.1056 92.2617 31.9925C92.5369 31.7551 92.8203 31.5264 93.0676 31.2586C93.5944 30.7525 94.0095 30.1477 94.4192 29.5378C94.3309 29.6984 94.241 29.8589 94.1491 30.0185C94.0563 30.1775 93.9729 30.3433 93.8587 30.4887L93.5303 30.9347C93.478 31.0113 93.417 31.0808 93.3539 31.1483L93.1676 31.3539C92.9315 31.6415 92.6392 31.8717 92.364 32.1198C92.221 32.2373 92.067 32.3412 91.9188 32.4527C91.8432 32.5064 91.7709 32.5649 91.6926 32.6146L91.4552 32.7592C90.8193 33.139 90.1387 33.4484 89.4265 33.65C88.7165 33.8541 87.9807 33.9779 87.2448 33.9729Z" fill="white"/>
<path d="M88.31 35.6686C88.6736 35.5843 89.0317 35.4816 89.3824 35.3576C89.7343 35.2386 90.0807 35.104 90.4185 34.9513C91.0933 34.646 91.7486 34.2929 92.3414 33.8512C92.9445 33.4246 93.4884 32.9163 93.9567 32.3447C94.0791 32.2058 94.183 32.0525 94.2956 31.9055C94.3966 31.7506 94.5066 31.6008 94.5971 31.4391C94.7992 31.1268 94.9548 30.7885 95.1147 30.4509C94.8765 31.158 94.5256 31.8345 94.0649 32.4303C93.6101 33.0312 93.0525 33.5506 92.4464 33.9964C91.8335 34.4344 91.1676 34.7956 90.4722 35.0776C89.7756 35.3553 89.0516 35.5712 88.31 35.6686Z" fill="white"/>
<path d="M90.1362 36.7556C90.4496 36.6571 90.7551 36.5388 91.0516 36.4019C91.2 36.3337 91.3472 36.2632 91.4929 36.1905C91.6356 36.1111 91.7811 36.0381 91.9208 35.9541C92.4829 35.6258 93.0141 35.2453 93.4907 34.8042C93.9711 34.3691 94.4103 33.8847 94.7793 33.349C95.1684 32.8251 95.4579 32.2377 95.7452 31.6467C95.6891 31.8006 95.6311 31.9545 95.571 32.1077C95.5098 32.2605 95.4588 32.4186 95.3789 32.5631C95.2278 32.8561 95.0828 33.1543 94.8936 33.4263C94.7262 33.7133 94.5104 33.9659 94.3053 34.2263C94.2021 34.356 94.0797 34.4689 93.9677 34.5912L93.7959 34.771L93.6109 34.9374C93.3679 35.1635 93.1024 35.3625 92.8363 35.56L92.4195 35.8304C92.279 35.9177 92.1317 35.9939 91.9874 36.0744C91.4026 36.3818 90.782 36.6275 90.1362 36.7556Z" fill="white"/>
</svg>
