<svg width="40" height="40" viewBox="0 0 40 40" fill="none" xmlns="http://www.w3.org/2000/svg">
<path fill-rule="evenodd" clip-rule="evenodd" d="M19.9931 -3.05176e-05C31.0371 -3.05176e-05 40 8.96286 40 20.0069C40 31.0371 31.0371 40 19.9931 40C8.94901 40 0 31.0371 0 20.0069C0 8.96286 8.94901 -3.05176e-05 19.9931 -3.05176e-05Z" fill="#1592E6"/>
<path d="M30 11.75C30 11.3 29.6667 11 29.1667 11L10.8333 11C10.3333 11 10 11.3 10 11.75V13.25C10 13.7 10.3333 14 10.8333 14L29.1667 14C29.6667 14 30 13.7 30 13.25V11.75Z" fill="white"/>
<path d="M23.75 18.9492C23.75 18.4992 23.5208 18.1992 23.1771 18.1992H10.5729C10.2292 18.1992 10 18.4992 10 18.9492V20.4492C10 20.8992 10.2292 21.1992 10.5729 21.1992H23.1771C23.5208 21.1992 23.75 20.8992 23.75 20.4492V18.9492Z" fill="white"/>
<path d="M30 26.1504C30 25.7004 29.6667 25.4004 29.1667 25.4004L10.8333 25.4004C10.3333 25.4004 10 25.7004 10 26.1504V27.6504C10 28.1004 10.3333 28.4004 10.8333 28.4004L29.1667 28.4004C29.6667 28.4004 30 28.1004 30 27.6504V26.1504Z" fill="white"/>
</svg>
